<svg xmlns="http://www.w3.org/2000/svg" viewBox="0 0 512 512" role="img" aria-labelledby="title desc">
  <title id="title">ForgeSets icon</title>
  <desc id="desc">A workout plan card paired with a barbell and weight plate.</desc>
  <defs>
    <linearGradient id="bg" x1="0%" y1="0%" x2="100%" y2="100%">
      <stop offset="0%" stop-color="#171A21" />
      <stop offset="100%" stop-color="#2D313C" />
    </linearGradient>
    <linearGradient id="sheet" x1="0%" y1="0%" x2="0%" y2="100%">
      <stop offset="0%" stop-color="#FFF3C8" />
      <stop offset="100%" stop-color="#F4D787" />
    </linearGradient>
    <linearGradient id="plate" x1="0%" y1="0%" x2="100%" y2="100%">
      <stop offset="0%" stop-color="#FFD54A" />
      <stop offset="100%" stop-color="#D39A20" />
    </linearGradient>
  </defs>

  <rect width="512" height="512" rx="112" fill="url(#bg)" />

  <rect x="124" y="104" width="214" height="252" rx="28" fill="url(#sheet)" />
  <rect x="150" y="148" width="126" height="14" rx="7" fill="#3E3A2D" opacity="0.88" />
  <rect x="150" y="192" width="162" height="10" rx="5" fill="#61583B" opacity="0.72" />
  <rect x="150" y="228" width="144" height="10" rx="5" fill="#61583B" opacity="0.72" />
  <rect x="150" y="264" width="154" height="10" rx="5" fill="#61583B" opacity="0.72" />
  <rect x="150" y="300" width="118" height="10" rx="5" fill="#61583B" opacity="0.72" />

  <path d="M368 184h44" stroke="#9AA0AA" stroke-width="12" stroke-linecap="round" />
  <path d="M100 184h44" stroke="#9AA0AA" stroke-width="12" stroke-linecap="round" />
  <rect x="136" y="172" width="240" height="24" rx="12" fill="#C8CED8" />
  <rect x="104" y="156" width="22" height="56" rx="8" fill="#7B828E" />
  <rect x="386" y="156" width="22" height="56" rx="8" fill="#7B828E" />

  <circle cx="352" cy="350" r="74" fill="url(#plate)" />
  <circle cx="352" cy="350" r="48" fill="none" stroke="#FDE48A" stroke-width="14" opacity="0.82" />
  <text x="352" y="364" text-anchor="middle" font-size="54" font-family="Arial, Helvetica, sans-serif" font-weight="700" fill="#2D2413">FS</text>
</svg>
